<svg preserveAspectRatio="none" overflow="visible" style="display: block;" width="256" height="256" viewBox="0 0 256 256" fill="none" xmlns="http://www.w3.org/2000/svg">
<g id="Connected venue network mark">
<path id="Vector" d="M154 128L141 150.5H115L102 128L115 105.5H141L154 128Z" fill="#D4AF37" stroke="#111111" stroke-width="7" stroke-linejoin="round"/>
<path id="Vector_2" d="M154 76L141 98.5H115L102 76L115 53.5H141L154 76Z" fill="white" stroke="#111111" stroke-width="7" stroke-linejoin="round"/>
<path id="Vector_3" d="M199 102L186 124.5H160L147 102L160 79.5H186L199 102Z" fill="white" stroke="#111111" stroke-width="7" stroke-linejoin="round"/>
<path id="Vector_4" d="M199 154L186 176.5H160L147 154L160 131.5H186L199 154Z" fill="white" stroke="#111111" stroke-width="7" stroke-linejoin="round"/>
<path id="Vector_5" d="M154 180L141 202.5H115L102 180L115 157.5H141L154 180Z" fill="white" stroke="#111111" stroke-width="7" stroke-linejoin="round"/>
<path id="Vector_6" d="M109 154L96 176.5H70L57 154L70 131.5H96L109 154Z" fill="white" stroke="#111111" stroke-width="7" stroke-linejoin="round"/>
<path id="Vector_7" d="M109 102L96 124.5H70L57 102L70 79.5H96L109 102Z" fill="white" stroke="#111111" stroke-width="7" stroke-linejoin="round"/>
<path id="Vector_8" d="M128 135C131.866 135 135 131.866 135 128C135 124.134 131.866 121 128 121C124.134 121 121 124.134 121 128C121 131.866 124.134 135 128 135Z" fill="#111111"/>
</g>
</svg>
